<svg width="40" height="40" viewBox="0 0 40 40" fill="none" xmlns="http://www.w3.org/2000/svg">
<path d="M0.127303 22.3038C0.212303 22.5071 0.333944 22.6921 0.488944 22.8471L5.4873 27.8455C6.13894 28.4955 7.1923 28.4955 7.84394 27.8455C8.49558 27.1939 8.49558 26.1389 7.84394 25.4889L5.68894 23.3339H14.999C15.9206 23.3339 16.6656 22.5872 16.6656 21.6672C16.6656 20.7472 15.9206 20.0006 14.999 20.0006H5.68902L7.84402 17.8456C8.49566 17.1939 8.49566 16.1389 7.84402 15.4889C7.51902 15.1623 7.09238 15.0006 6.66566 15.0006C6.23894 15.0006 5.8123 15.1622 5.4873 15.4889L0.488944 20.4873C0.333944 20.6407 0.212303 20.8257 0.127303 21.0307C-0.0409776 21.4371 -0.0409776 21.8971 0.127303 22.3038Z" fill="currentColor"/>
<path d="M11.6656 16.6666C12.5873 16.6666 13.3323 15.92 13.3323 15V6.66664H19.9989V33.3334C19.9989 34.0684 20.4823 34.7184 21.1873 34.93L26.9756 36.6666H13.3323V28.3333C13.3323 27.4133 12.5873 26.6666 11.6656 26.6666C10.744 26.6666 9.99898 27.4133 9.99898 28.3333V38.3333C9.99898 39.2534 10.744 40 11.6656 40H38.3323C38.3923 40 38.4456 39.975 38.5039 39.9684C38.5823 39.96 38.6539 39.9467 38.7289 39.9284C38.9039 39.8834 39.0623 39.815 39.2105 39.7217C39.2472 39.6984 39.2922 39.6967 39.3272 39.6701C39.3406 39.66 39.3456 39.6416 39.359 39.6316C39.5406 39.4884 39.6923 39.3134 39.8023 39.105C39.8256 39.06 39.8306 39.0116 39.8489 38.965C39.9023 38.8384 39.9605 38.715 39.9805 38.575C39.9889 38.525 39.9739 38.4784 39.9755 38.43C39.9772 38.3966 39.9989 38.3666 39.9989 38.3334V5C39.9989 4.205 39.4373 3.52164 38.6589 3.36664L21.9923 0.0332808C21.8839 0.00992147 21.7739 -7.62939e-05 21.6656 -7.62939e-05C21.284 -7.62939e-05 20.909 0.131563 20.609 0.378282C20.224 0.694923 19.999 1.16664 19.999 1.66664V3.33328H11.6656C10.744 3.33328 9.99898 4.07992 9.99898 4.99992V15C9.99898 15.92 10.744 16.6666 11.6656 16.6666Z" fill="currentColor"/>
</svg>
